<svg xmlns="http://www.w3.org/2000/svg" viewBox="0 0 64 64" role="img" aria-labelledby="title">
  <title>LS favicon</title>
  <rect width="64" height="64" rx="12" fill="#17191b"/>
  <path d="M20 16v32h20v-6H27V16z" fill="#f7f7f4"/>
  <path d="M49 19.5c-2.3-2.4-5.3-3.5-9.3-3.5-5.8 0-10.1 3-10.1 8 0 4.6 3.1 6.8 8.3 7.8l3.4.7c2.9.6 4 1.5 4 3.1 0 2.1-1.9 3.3-5.1 3.3-3.3 0-5.8-1.1-8.1-3.4l-4.1 4.2c2.7 3.2 6.7 4.8 12.2 4.8 7 0 11.6-3.3 11.6-8.8 0-4.6-2.7-7.1-8.3-8.2l-3.4-.7c-2.7-.5-3.9-1.4-3.9-3 0-2 1.7-3.2 4.5-3.2 2.7 0 4.7.8 6.4 2.4z" fill="#f7f7f4"/>
</svg>
